<?xml version="1.0" standalone="no"?>
<!DOCTYPE svg PUBLIC "-//W3C//DTD SVG 20010904//EN"
 "http://www.w3.org/TR/2001/REC-SVG-20010904/DTD/svg10.dtd">
<svg version="1.0" xmlns="http://www.w3.org/2000/svg"
 width="300.000000pt" height="300.000000pt" viewBox="0 0 1000.000000 1000.000000"
 preserveAspectRatio="xMidYMid meet">

<g transform="translate(250.000000,750.000000) scale(0.100000,-0.100000)"
fill="#FFFFFF" stroke="none">
<path d="M620 4424 c-209 -55 -381 -226 -434 -430 -14 -55 -16 -236 -16 -1689
0 -1806 -5 -1676 67 -1819 47 -93 152 -199 248 -248 140 -73 16 -68 1777 -68
1745 0 1633 -4 1768 62 96 48 216 170 262 268 67 141 63 26 63 1805 0 1328 -2
1630 -14 1675 -41 169 -167 324 -321 398 -47 22 -109 45 -138 51 -37 8 -528
11 -1630 10 -1341 0 -1585 -2 -1632 -15z m2761 -792 c74 -36 125 -87 161 -160
l33 -67 0 -250 0 -250 -28 -56 c-32 -67 -109 -142 -175 -172 l-47 -22 -1105 0
-1105 0 -56 26 c-72 34 -134 96 -168 168 -26 56 -26 56 -26 311 l0 255 28 57
c34 70 110 140 180 167 51 20 72 20 1157 18 l1105 -2 46 -23z m171 -1702 c25
-26 29 -36 24 -63 -3 -18 -16 -40 -27 -49 -20 -17 -98 -18 -1331 -18 l-1309 0
-24 25 c-35 35 -33 76 6 109 l31 26 1300 0 1300 0 30 -30z m-11 -413 c20 -15
39 -51 39 -72 0 -9 -13 -30 -29 -46 l-29 -29 -1297 0 c-1118 0 -1300 2 -1324
15 -48 24 -56 81 -16 120 l24 25 1308 0 c1012 -1 1312 -3 1324 -13z m8 -434
c34 -29 37 -74 8 -109 l-25 -29 -1310 0 -1310 0 -26 24 c-32 30 -34 69 -5 105
l20 26 1314 0 c1236 0 1314 -1 1334 -17z"/>
<path d="M1130 3493 c-35 -13 -72 -47 -90 -83 -18 -35 -20 -60 -20 -249 0
-223 4 -248 48 -295 55 -59 -1 -56 1149 -56 1008 0 1060 1 1099 19 47 22 80
59 95 110 7 22 9 113 7 241 -3 195 -4 207 -27 243 -12 21 -40 46 -62 57 -37
20 -63 20 -1111 19 -590 0 -1080 -3 -1088 -6z"/>
<path d="M4288 4380 c75 -75 130 -156 171 -253 64 -155 62 -87 59 -1868 l-3
-1614 -23 -73 c-44 -142 -136 -291 -225 -366 l-42 -36 109 0 c127 0 199 16
300 67 96 48 201 153 249 249 72 143 67 13 67 1820 0 1801 5 1670 -66 1814
-51 102 -153 204 -254 253 -104 51 -176 67 -299 67 l-104 0 61 -60z"/>
</g>
</svg>
